<svg width="44" height="44" viewBox="0 0 44 44" fill="none" xmlns="http://www.w3.org/2000/svg">
<path d="M16.75 13.25L22 8L27.25 13.25" stroke="black" stroke-width="1.5" stroke-linecap="round" stroke-linejoin="round"/>
<path d="M22 22V8" stroke="black" stroke-width="1.5" stroke-linecap="round" stroke-linejoin="round"/>
<path d="M28 18H31C31.2652 18 31.5196 18.1054 31.7071 18.2929C31.8946 18.4804 32 18.7348 32 19V32C32 32.2652 31.8946 32.5196 31.7071 32.7071C31.5196 32.8946 31.2652 33 31 33H13C12.7348 33 12.4804 32.8946 12.2929 32.7071C12.1054 32.5196 12 32.2652 12 32V19C12 18.7348 12.1054 18.4804 12.2929 18.2929C12.4804 18.1054 12.7348 18 13 18H16" stroke="black" stroke-width="1.5" stroke-linecap="round" stroke-linejoin="round"/>
</svg>
