<svg width="150" height="38" viewBox="0 0 150 38" fill="none" xmlns="http://www.w3.org/2000/svg">
<path d="M116.153 16.1455C120.694 11.1639 125.675 10.1549 129.837 6.30838C132.486 3.91217 133.305 1.64207 133.81 0.443963C133.873 0.380905 133.873 0.317846 133.873 0.254788C133.81 0.19173 133.747 0.19173 133.684 0.19173C132.612 0.00255502 130.846 -0.0605033 129.459 0.0656133C128.324 0.19173 126.999 0.380905 126.18 0.633138C126.117 0.633138 126.054 0.696196 125.991 0.696196C125.927 0.759255 125.927 0.759254 125.927 0.822313C125.234 3.28159 121.324 6.05615 120.378 6.81285C118.991 7.9479 117.793 8.95683 116.595 10.218C115.586 11.29 114.577 12.5512 113.883 13.8123C113.127 15.0735 112.748 16.3977 112.559 17.6589C112.37 18.7309 112.37 19.7398 112.433 20.4965V20.7487C112.559 21.8838 112.748 22.3882 112.748 22.4513C112.748 22.5774 112.811 22.6405 112.874 22.6405C112.937 22.6405 112.937 22.5144 113.001 22.4513C113.001 22.3882 113.127 21.9468 113.253 21.5685C113.379 21.1271 113.442 20.9379 113.568 20.4965C113.883 19.4245 114.577 17.8481 116.153 16.1455ZM149.89 16.7761C149.89 16.713 149.89 16.5869 149.827 16.5869C149.764 16.5238 149.764 16.5238 149.637 16.5238C148.502 16.4608 147.241 16.3977 145.791 16.3977C137.656 16.5238 127.315 18.5417 122.711 23.0188C120.568 25.0998 119.496 27.8113 120.315 31.1534C121.198 34.9369 124.351 36.6394 126.369 37.2069C127.378 37.4592 128.135 37.3961 128.135 37.3961C128.135 37.3961 128.261 37.3961 128.261 37.3331C128.261 37.27 128.135 37.2069 128.135 37.2069C128.135 37.2069 127.756 36.8917 127.567 36.7025C127.378 36.4502 127.252 36.3241 127.063 36.0719C126.747 35.6305 126.432 34.9999 126.18 34.1171C125.675 32.2253 126.243 30.5228 127.567 29.0724C129.837 26.6762 134.945 25.0998 143.773 25.0998L148.628 25.1628C148.628 25.1628 148.755 25.1628 148.818 25.0998C148.881 25.0367 148.881 25.0367 148.944 24.9106C149.259 24.0908 149.637 22.5774 149.827 20.7487C150.079 19.5506 150.016 18.1633 149.89 16.7761Z" fill="#ED1A3B"/>
<path d="M135.512 15.7041C141.629 15.0105 146.232 14.9474 149.448 15.3258H149.637V15.1366C149.322 13.434 148.565 11.3531 147.682 9.77664C147.493 9.39829 147.178 8.89382 146.926 8.51547C146.863 8.38936 146.863 8.45241 146.8 8.38936C146.737 8.3263 146.547 8.3263 146.547 8.3263C146.043 8.26324 144.845 8.20018 143.395 8.20018C140.872 8.13712 137.782 8.45241 134.314 9.14606C129.206 10.155 124.792 11.8576 121.198 14.1907C117.351 16.7131 114.451 19.5507 113.379 24.0909C113.19 24.7845 113.631 26.1087 114.135 27.1177C114.451 27.7483 114.766 28.2527 115.081 28.6941L115.207 28.8203C115.271 28.8203 115.27 28.7572 115.27 28.6941C115.334 28.3788 115.397 27.7483 115.775 26.8654C116.342 25.2259 117.73 21.8208 123.594 19.0462C127.441 17.0914 131.603 16.2086 135.512 15.7041Z" fill="#ED1A3B"/>
<path d="M146.358 17.9111H144.656V19.8659H142.701V21.5685H144.656V23.5233H146.358V21.5685H148.313V19.8659H146.358V17.9111Z" fill="white"/>
<path d="M32.6011 25.2258H28.5654C28.3132 25.2258 28.3132 25.3519 28.3132 25.6042C28.3132 25.9195 28.3132 25.9195 28.6915 25.9195C29.3221 25.9195 30.0157 26.0456 30.0157 26.8023C30.0157 27.3067 29.5743 28.3787 29.259 29.1354C28.6915 30.4597 27.6826 32.6036 26.8628 34.4323C26.3584 32.9189 24.4666 27.3067 24.4666 26.8023C24.4666 26.1086 24.9711 26.1086 25.7908 26.0456C26.1061 25.9825 26.1692 25.9825 26.1692 25.6042C26.1692 25.3519 26.1692 25.2258 25.8539 25.2258H20.6201C20.3678 25.2258 20.3048 25.3519 20.3048 25.6042C20.3048 25.7933 20.3048 25.8564 20.4939 25.9195C20.9984 25.9825 21.1876 26.0456 21.4398 26.2978C21.6921 26.6131 22.0704 27.559 22.5749 28.8832C22.0073 30.1444 20.4309 33.4234 19.9264 34.4323C18.9805 32.0992 18.5391 30.9011 18.0977 29.766C17.6563 28.5679 17.2149 27.3067 17.2149 26.8023C17.2149 26.2978 17.4671 26.0456 18.35 25.9825C18.6653 25.9825 18.7283 25.9195 18.7283 25.6042C18.7283 25.415 18.7283 25.2258 18.6022 25.2258H13.6206C13.3684 25.2258 13.3053 25.2889 13.3053 25.5411C13.3053 25.8564 13.3053 25.8564 13.6836 26.0456C13.9359 26.1717 14.1881 26.55 14.6295 27.4329C15.7015 29.703 17.278 33.9909 18.2869 36.7655C18.4761 37.2069 18.4761 37.27 18.6022 37.27L19.6111 37.1438C19.8003 37.1438 19.8003 37.1438 19.9264 36.8285C20.8092 34.8737 21.2506 33.9909 23.1424 30.2705C24.1513 33.045 24.908 35.4413 25.2233 36.6394C25.4125 37.27 25.4125 37.333 25.6017 37.27L26.2953 37.2069C26.5475 37.2069 26.7367 37.0808 26.8628 36.8285C26.9259 36.6394 27.3673 35.6935 27.5565 35.2521C28.4393 33.2973 29.5743 30.838 30.268 29.5138C30.9616 28.1896 31.9706 26.3609 32.6011 26.0456C32.7903 25.9195 32.8534 25.8564 32.8534 25.6042C32.8534 25.3519 32.7903 25.2258 32.6011 25.2258ZM7.81923 27.1176C4.5402 25.6672 3.21597 25.0997 3.21597 23.0188C3.21597 21.127 4.66631 19.9289 6.55806 19.9289C7.567 19.9289 8.57593 20.1812 9.26957 20.6856C10.2154 21.3162 10.5307 22.199 10.783 23.0188C10.9091 23.4602 10.9721 23.5232 11.0983 23.5232C11.3505 23.5232 11.7288 23.4602 11.7288 23.1449C11.7288 23.0188 11.6658 22.199 11.6027 21.6315C11.5397 20.9379 11.6027 19.4875 11.6027 19.2983C11.6027 19.1092 11.6027 19.0461 11.4136 19.0461H11.1613C11.0983 19.1092 10.9721 19.1722 10.9091 19.1722C10.846 19.1722 10.2154 19.1092 9.45874 18.983C8.70204 18.92 7.69311 18.8569 6.99947 18.8569C2.96374 18.8569 0.819758 20.9379 0.819758 23.7755C0.819758 24.6583 1.07199 25.7933 2.01787 26.7392C2.83762 27.559 3.65738 27.9373 5.86442 28.9463C8.7651 30.2705 10.0263 30.9011 10.0263 32.8559C10.0263 34.8107 8.44981 36.1349 6.36889 36.1349C4.85549 36.1349 3.53126 35.6935 2.52233 34.9999C1.70257 34.3062 1.19811 33.3603 0.945874 32.2253C0.882816 31.9731 0.882816 31.7839 0.693641 31.7839C0.189175 31.7839 0 32.0992 0 32.3514C0 33.1081 0.252233 35.4413 0.441408 36.6394C0.504466 37.0808 0.504466 37.1438 0.819758 37.1438C1.13505 37.1438 1.13505 36.8916 1.5134 36.8916C1.95481 36.8916 3.84656 37.333 6.11665 37.333C8.82816 37.333 10.1524 36.7024 11.0352 36.0718C11.9811 35.3782 12.8639 34.054 12.8639 32.3514C12.7378 29.2615 10.0893 28.1265 7.81923 27.1176ZM39.7267 36.3871C38.6547 36.3241 38.0872 36.261 37.9611 35.4413C37.835 34.8107 37.835 31.7208 37.835 30.838C37.835 28.694 37.898 27.4329 37.898 26.7392C37.898 26.2978 37.9611 25.415 38.0242 25.0366C38.0242 24.8475 37.9611 24.7844 37.7719 24.7844C37.5827 24.7844 37.3305 24.8475 37.0783 24.9736C36.3846 25.2258 34.6821 26.1086 34.1145 26.2978C33.8623 26.4239 33.7362 26.487 33.7362 26.8023C33.7362 27.1176 33.7362 27.1176 34.2407 27.1806C35.5649 27.3698 35.5649 27.7481 35.5649 30.6488C35.5649 32.2883 35.5649 34.5584 35.3126 35.3151C35.1235 35.9457 34.8082 36.1349 33.8623 36.3241C33.484 36.3871 33.4209 36.4502 33.4209 36.7655C33.4209 37.0177 33.484 37.0808 33.6731 37.0808C34.1776 37.0808 35.7541 37.0177 36.8891 37.0177C38.2764 37.0177 39.5376 37.0808 39.9159 37.0808C40.1681 37.0808 40.2312 37.0177 40.2312 36.7024C40.2312 36.4502 40.1681 36.3871 39.7267 36.3871ZM36.8891 21.064C37.6458 21.064 38.4025 20.3073 38.4025 19.5506C38.4025 18.8569 37.6458 18.1002 36.9522 18.1002C36.3216 18.1002 35.4388 18.8569 35.4388 19.6136C35.5018 20.3073 36.2585 21.064 36.8891 21.064ZM46.7893 30.2705C44.6453 29.2615 43.8886 28.7571 43.8886 27.6851C43.8886 27.1806 44.1408 25.9825 45.8434 25.9825C47.6721 25.9825 48.4288 27.3067 48.7441 28.0004C48.8702 28.3157 48.9332 28.3787 49.0594 28.3787C49.5638 28.3787 49.6269 28.3157 49.6269 28.0634C49.6269 27.622 49.5008 26.3609 49.4377 25.7303C49.3746 25.2889 49.3746 25.2258 49.1855 25.2258C49.0594 25.2258 48.8702 25.2889 48.8071 25.2889C48.6179 25.2889 47.4198 25.0366 46.4109 25.0366C42.7535 25.0366 41.8077 27.1176 41.8077 28.3787C41.8077 30.3966 43.5102 31.2164 45.0867 31.91C46.9154 32.7928 47.9243 33.3603 47.9243 34.5584C47.9243 35.2521 47.4829 36.4502 45.7173 36.4502C44.7083 36.4502 42.8166 36.0088 42.2491 33.8648C42.1229 33.4234 42.1229 33.3603 41.9338 33.3603C41.6185 33.3603 41.4293 33.4234 41.4293 33.6126C41.4293 33.8648 41.5554 34.8737 41.5554 35.3151V36.7024C41.5554 36.9547 41.6185 37.0808 41.8077 37.0808C41.9338 37.0808 42.1229 37.0177 42.186 37.0177C42.3121 37.0177 42.5013 37.0808 42.7535 37.0808C43.258 37.1438 44.2039 37.333 45.402 37.333C47.0415 37.333 50.3836 36.8285 50.3836 33.9279C50.1944 31.8469 48.3027 30.9641 46.7893 30.2705ZM57.2569 30.2705C55.1129 29.2615 54.3563 28.7571 54.3563 27.6851C54.3563 27.1806 54.6085 25.9825 56.3111 25.9825C58.1397 25.9825 58.8964 27.3067 59.2117 28.0004C59.3379 28.3157 59.4009 28.3787 59.527 28.3787C60.0315 28.3787 60.0946 28.3157 60.0946 28.0634C60.0946 27.622 59.9684 26.3609 59.9054 25.7303C59.8423 25.2889 59.8423 25.2258 59.6531 25.2258C59.527 25.2258 59.3379 25.2889 59.2748 25.2889C59.0856 25.2889 57.8875 25.0366 56.8786 25.0366C53.2212 25.0366 52.2753 27.1176 52.2753 28.3787C52.2753 30.3966 53.9779 31.2164 55.5544 31.91C57.383 32.7928 58.392 33.3603 58.392 34.5584C58.392 35.2521 57.9506 36.4502 56.1849 36.4502C55.176 36.4502 53.2843 36.0088 52.7167 33.8648C52.4645 33.4865 52.4645 33.4234 52.2753 33.4234C51.96 33.4234 51.7709 33.4865 51.7709 33.6756C51.7709 33.9279 51.897 34.9368 51.897 35.3782V36.7655C51.897 37.0177 51.96 37.1438 52.1492 37.1438C52.2753 37.1438 52.4645 37.0808 52.5276 37.0808C52.6537 37.0808 52.8429 37.1438 53.0951 37.1438C53.5996 37.2069 54.5454 37.3961 55.7435 37.3961C57.383 37.3961 60.7251 36.8916 60.7251 33.9909C60.6621 31.8469 58.7703 30.9641 57.2569 30.2705ZM76.3636 32.2253C76.1744 32.2253 76.1114 32.4775 76.0483 32.8559C75.733 33.8648 75.2285 34.8107 74.4718 35.2521C73.4629 35.8196 71.5712 35.8196 69.8055 35.8196C68.6074 35.8196 68.166 35.8196 68.0399 35.126C67.8507 34.3062 67.7877 31.2794 67.7877 28.694C67.7877 26.8653 67.7877 22.3882 68.0399 21.3162C68.2291 20.3703 68.7335 20.1181 69.9316 19.992C70.4361 19.9289 70.4361 19.9289 70.4361 19.4875C70.4361 19.2353 70.31 19.1722 70.1208 19.1722C69.4272 19.1722 67.5985 19.2983 66.5896 19.2983C65.7698 19.2983 64.1303 19.1722 63.2475 19.1722C62.9952 19.1722 62.9322 19.1722 62.9322 19.6136C62.9322 19.8659 62.9952 19.8659 63.6258 19.992C65.0762 20.2442 65.2023 20.7487 65.2023 22.6404V26.7392C65.2023 29.0724 65.2023 32.5406 65.0131 34.3062C64.887 35.3151 64.7609 36.198 63.1213 36.3871C62.6799 36.4502 62.6169 36.4502 62.6169 36.8285C62.6169 37.0808 62.6799 37.2069 62.9322 37.2069C63.2475 37.2069 64.3825 37.0808 69.238 37.0808C74.4718 37.0808 74.9763 37.2069 75.5438 37.2069C75.7961 37.2069 75.8591 36.9547 76.0483 36.3871C76.6158 34.2432 76.805 32.982 76.805 32.5406C76.9942 32.3514 76.9311 32.2253 76.3636 32.2253ZM84.372 36.3871C83.3 36.3241 82.7325 36.261 82.6064 35.4413C82.4802 34.8107 82.4802 31.7208 82.4802 30.838C82.4802 28.694 82.5433 27.4329 82.5433 26.7392C82.5433 26.2978 82.6064 25.415 82.6694 25.0366C82.6694 24.8475 82.6064 24.7844 82.4172 24.7844C82.228 24.7844 81.9758 24.8475 81.7235 24.9736C81.0299 25.2258 79.3273 26.1086 78.7598 26.2978C78.5076 26.4239 78.3815 26.487 78.3815 26.8023C78.3815 27.1176 78.3815 27.1176 78.8859 27.1806C80.2101 27.3698 80.2102 27.7481 80.2102 30.6488C80.2102 32.2883 80.2102 34.5584 79.9579 35.3151C79.7687 35.9457 79.4534 36.1349 78.5076 36.3241C78.1292 36.3871 78.0662 36.4502 78.0662 36.7655C78.0662 37.0177 78.1292 37.0808 78.3184 37.0808C78.8229 37.0808 80.3993 37.0177 81.5344 37.0177C82.9216 37.0177 84.1828 37.0808 84.5612 37.0808C84.8134 37.0808 84.8765 37.0177 84.8765 36.7024C84.8134 36.4502 84.7503 36.3871 84.372 36.3871ZM81.5344 21.064C82.2911 21.064 83.0478 20.3073 83.0478 19.5506C83.0478 18.8569 82.2911 18.1002 81.5974 18.1002C80.9668 18.1002 80.084 18.8569 80.084 19.6136C80.1471 20.3073 80.9038 21.064 81.5344 21.064ZM94.146 25.2889H90.2364C90.2364 20.8748 90.3625 19.0461 93.3893 19.0461C94.8397 19.0461 95.4703 19.4875 95.9117 19.8028C96.227 20.055 96.4161 20.3073 96.6053 20.3073C96.8575 20.3073 98.1187 19.7397 98.1187 19.1092C98.1187 18.3525 96.9206 17.2805 94.7766 17.2805C92.5065 17.2805 90.4886 18.6047 89.2905 20.1181C88.0294 21.7576 87.9663 22.8296 87.9663 25.2889L86.4529 25.9825C86.3268 26.0456 86.3268 26.1086 86.3268 26.4239C86.3268 26.6762 86.3268 26.6762 86.516 26.6762H87.9663C87.9663 28.694 87.9663 32.4775 87.9033 34.3062C87.8402 35.8827 87.651 36.1349 86.4529 36.3241C86.1376 36.3871 86.0746 36.3871 86.0746 36.7655C86.0746 36.9547 86.0746 37.1438 86.2637 37.1438C86.7051 37.1438 87.9033 37.0808 88.8491 37.0808C90.1734 37.0808 92.2543 37.1438 92.6326 37.1438C93.1371 37.1438 93.2001 37.0808 93.2001 36.7024C93.2001 36.3871 93.2002 36.3241 92.8218 36.3241C90.9301 36.3241 90.4256 36.0718 90.3625 34.4954C90.3625 32.7928 90.2995 29.2615 90.2995 26.6762H94.146C94.5244 26.6762 94.5244 26.55 94.5244 25.9825C94.3983 25.3519 94.3983 25.2889 94.146 25.2889Z" fill="black"/>
<path d="M104.992 34.5585C104.992 34.4324 104.929 34.4954 104.803 34.5585C103.479 35.5674 102.091 35.8197 101.209 35.8197C98.2449 35.8197 97.4882 33.1081 97.4251 31.1533C99.9474 30.6489 102.407 30.1444 104.992 29.7661C105.118 29.7661 104.992 28.8832 104.803 28.1896C104.109 25.7303 101.965 25.0367 100.641 25.0367C97.9926 25.0367 94.9658 27.4329 94.9658 31.847C94.9658 33.991 95.7856 37.4592 99.8844 37.4592C101.839 37.4592 103.668 36.5764 104.74 35.6305C104.992 35.4413 105.055 35.3152 105.055 35.126C105.055 34.8738 105.055 34.7477 104.992 34.5585ZM99.8213 25.9826C101.209 25.9826 102.344 27.559 102.344 28.5679C102.344 28.8202 102.218 29.0724 101.335 29.3246C99.3168 29.8291 98.5601 30.0183 97.4251 30.2075C97.4251 28.1265 98.1818 25.9826 99.8213 25.9826Z" fill="black"/>
</svg>
