<?xml version="1.0" standalone="no"?>
<!DOCTYPE svg PUBLIC "-//W3C//DTD SVG 20010904//EN"
 "http://www.w3.org/TR/2001/REC-SVG-20010904/DTD/svg10.dtd">
<svg version="1.0" xmlns="http://www.w3.org/2000/svg"
 width="512.000000pt" height="512.000000pt" viewBox="0 0 512.000000 512.000000"
 preserveAspectRatio="xMidYMid meet">
<metadata>
Created by potrace 1.11, written by Peter Selinger 2001-2013
</metadata>
<g transform="translate(0.000000,512.000000) scale(0.100000,-0.100000)"
fill="#000000" stroke="none">
<path d="M2335 5049 c-219 -18 -471 -70 -486 -99 -4 -8 -17 -39 -28 -68 -66
-171 -253 -372 -621 -667 -351 -282 -549 -465 -708 -655 -184 -221 -291 -399
-355 -595 -68 -206 -97 -437 -79 -641 11 -127 38 -244 58 -251 5 -2 15 20 22
49 83 366 230 627 512 908 249 249 442 388 945 680 468 272 646 400 855 616
173 179 274 327 385 569 34 75 51 123 45 129 -25 25 -366 40 -545 25z"/>
<path d="M3755 3959 c-919 -78 -1717 -297 -2310 -634 -422 -240 -792 -544
-978 -805 -135 -191 -272 -511 -284 -665 -7 -84 15 -175 76 -316 56 -128 161
-302 176 -288 3 4 19 58 35 121 104 414 321 710 710 970 156 104 427 240 640
321 579 221 1297 342 2248 379 284 11 662 3 875 -19 45 -5 48 -4 39 13 -5 11
-18 55 -27 99 -36 164 -106 356 -197 535 -105 206 -153 282 -188 291 -36 10
-695 8 -815 -2z"/>
<path d="M4224 2900 c-775 -37 -1526 -189 -2078 -421 -528 -222 -865 -510
-1006 -858 -53 -131 -65 -202 -65 -386 1 -151 4 -182 28 -280 35 -141 114
-302 202 -412 181 -227 474 -383 763 -408 99 -9 104 -1 36 65 -98 96 -179 245
-220 408 -40 157 -27 282 46 428 179 364 673 595 1456 683 306 35 533 43 1034
40 l475 -4 12 37 c23 71 72 333 89 478 21 189 16 592 -8 616 -13 13 -62 16
-304 19 -159 2 -366 0 -460 -5z m314 -332 l3 -128 124 0 125 0 0 -115 0 -115
-125 0 -125 0 0 -125 0 -125 -115 0 -115 0 0 125 0 125 -125 0 -125 0 0 115 0
115 125 0 125 0 0 130 0 131 113 -3 112 -3 3 -127z"/>
</g>
</svg>
